<svg xmlns="http://www.w3.org/2000/svg" width="390" height="844" viewBox="0 0 390 844">
<rect width="390" height="844" fill="#07111f"/>
<circle cx="340" cy="40" r="95" fill="#172554" opacity="0.35"/>
<circle cx="48" cy="155" r="55" fill="#082f49" opacity="0.45"/>
<rect x="24" y="28" width="48" height="48" rx="14" fill="#151f31" stroke="#2b3a55" stroke-width="2"/><text x="84" y="60" font-family="Inter, Arial, sans-serif" font-size="24" font-weight="900" fill="#f8fafc" text-anchor="start">My Route</text><text x="84" y="84" font-family="Inter, Arial, sans-serif" font-size="13" font-weight="700" fill="#94a3b8" text-anchor="start">Plan picks across gameweeks</text>
<rect x="24" y="108" width="342" height="130" rx="22" fill="#082f49" stroke="#0ea5e9" stroke-width="2"/><g transform="translate(260,128)"><rect x="0" y="0" width="86" height="30" rx="15" fill="#063344" stroke="#22d3ee" stroke-width="2"/><text x="43" y="19.68" font-family="Inter, Arial, sans-serif" font-size="13" font-weight="900" fill="#a5f3fc" text-anchor="middle">Lifeline</text></g><g transform="translate(44,128)"><g transform="translate(0,0)"><text x="0" y="12" font-family="Inter, Arial, sans-serif" font-size="13" font-weight="900" fill="#67e8f9" text-anchor="start">YOUR ROUTE</text></g><g transform="translate(0,24)"><text x="0" y="27.88" font-family="Inter, Arial, sans-serif" font-size="34" font-weight="900" fill="#f8fafc" text-anchor="start">MEX</text></g><g transform="translate(0,71)"><text x="0" y="12.75" font-family="Inter, Arial, sans-serif" font-size="15" font-weight="700" fill="#cbd5e1" text-anchor="start">Mexico vs South Africa</text></g></g>
<rect x="24" y="254" width="342" height="112" rx="22" fill="#151f31" stroke="#2b3a55" stroke-width="2"/><g transform="translate(44,274)"><g transform="translate(0,0)"><rect x="0" y="0" width="92" height="72" rx="18" fill="#151f31" stroke="#2b3a55" stroke-width="2"/><text x="14" y="26" font-family="Inter, Arial, sans-serif" font-size="11" font-weight="900" fill="#94a3b8" text-anchor="start">AVAILABLE</text><text x="14" y="56" font-family="Inter, Arial, sans-serif" font-size="24" font-weight="900" fill="#f8fafc" text-anchor="start">14</text><rect x="104" y="0" width="92" height="72" rx="18" fill="#151f31" stroke="#2b3a55" stroke-width="2"/><text x="118" y="26" font-family="Inter, Arial, sans-serif" font-size="11" font-weight="900" fill="#94a3b8" text-anchor="start">USED</text><text x="118" y="56" font-family="Inter, Arial, sans-serif" font-size="24" font-weight="900" fill="#f8fafc" text-anchor="start">3</text><rect x="208" y="0" width="92" height="72" rx="18" fill="#151f31" stroke="#2b3a55" stroke-width="2"/><text x="222" y="26" font-family="Inter, Arial, sans-serif" font-size="11" font-weight="900" fill="#94a3b8" text-anchor="start">RESERVED</text><text x="222" y="56" font-family="Inter, Arial, sans-serif" font-size="24" font-weight="900" fill="#f8fafc" text-anchor="start">2</text></g></g>
<rect x="24" y="382" width="342" height="176" rx="22" fill="#151f31" stroke="#2b3a55" stroke-width="2"/><g transform="translate(44,402)"><g transform="translate(0,0)"><text x="0" y="13.12" font-family="Inter, Arial, sans-serif" font-size="16" font-weight="900" fill="#f8fafc" text-anchor="start">Used before</text></g><g transform="translate(0,27)"><rect x="0" y="0" width="52" height="34" rx="17" fill="#3a2605" stroke="#f59e0b" stroke-width="2"/><text x="26" y="22.04" font-family="Inter, Arial, sans-serif" font-size="14" font-weight="900" fill="#fde68a" text-anchor="middle">KOR</text><rect x="62" y="0" width="52" height="34" rx="17" fill="#3a2605" stroke="#f59e0b" stroke-width="2"/><text x="88" y="22.04" font-family="Inter, Arial, sans-serif" font-size="14" font-weight="900" fill="#fde68a" text-anchor="middle">USA</text><rect x="124" y="0" width="52" height="34" rx="17" fill="#3a2605" stroke="#f59e0b" stroke-width="2"/><text x="150" y="22.04" font-family="Inter, Arial, sans-serif" font-size="14" font-weight="900" fill="#fde68a" text-anchor="middle">BRA</text></g><g transform="translate(0,75)"><text x="0" y="13.12" font-family="Inter, Arial, sans-serif" font-size="16" font-weight="900" fill="#f8fafc" text-anchor="start">Reserved in another gameweek</text></g><g transform="translate(0,102)"><rect x="0" y="0" width="52" height="34" rx="17" fill="#063344" stroke="#22d3ee" stroke-width="2"/><text x="26" y="22.04" font-family="Inter, Arial, sans-serif" font-size="14" font-weight="900" fill="#a5f3fc" text-anchor="middle">ESP</text><rect x="62" y="0" width="52" height="34" rx="17" fill="#063344" stroke="#22d3ee" stroke-width="2"/><text x="88" y="22.04" font-family="Inter, Arial, sans-serif" font-size="14" font-weight="900" fill="#a5f3fc" text-anchor="middle">FRA</text></g></g>
<rect x="24" y="574" width="342" height="185" rx="22" fill="#151f31" stroke="#2b3a55" stroke-width="2"/><g transform="translate(44,594)"><g transform="translate(0,0)"><text x="0" y="13.12" font-family="Inter, Arial, sans-serif" font-size="16" font-weight="900" fill="#f8fafc" text-anchor="start">Available teams this gameweek</text></g><g transform="translate(0,27)"><rect x="0" y="0" width="94" height="54" rx="14" fill="#111827" stroke="#334155" stroke-width="2"/><text x="12" y="24" font-family="Inter, Arial, sans-serif" font-size="16" font-weight="900" fill="#f8fafc" text-anchor="start">MEX</text><text x="12" y="42" font-family="Inter, Arial, sans-serif" font-size="10" font-weight="700" fill="#94a3b8" text-anchor="start">Tap pick</text><rect x="104" y="0" width="94" height="54" rx="14" fill="#111827" stroke="#334155" stroke-width="2"/><text x="116" y="24" font-family="Inter, Arial, sans-serif" font-size="16" font-weight="900" fill="#f8fafc" text-anchor="start">RSA</text><text x="116" y="42" font-family="Inter, Arial, sans-serif" font-size="10" font-weight="700" fill="#94a3b8" text-anchor="start">Tap pick</text><rect x="208" y="0" width="94" height="54" rx="14" fill="#111827" stroke="#334155" stroke-width="2"/><text x="220" y="24" font-family="Inter, Arial, sans-serif" font-size="16" font-weight="900" fill="#f8fafc" text-anchor="start">CAN</text><text x="220" y="42" font-family="Inter, Arial, sans-serif" font-size="10" font-weight="700" fill="#94a3b8" text-anchor="start">Tap pick</text><rect x="0" y="64" width="94" height="54" rx="14" fill="#111827" stroke="#334155" stroke-width="2"/><text x="12" y="88" font-family="Inter, Arial, sans-serif" font-size="16" font-weight="900" fill="#f8fafc" text-anchor="start">BIH</text><text x="12" y="106" font-family="Inter, Arial, sans-serif" font-size="10" font-weight="700" fill="#94a3b8" text-anchor="start">Tap pick</text><rect x="104" y="64" width="94" height="54" rx="14" fill="#111827" stroke="#334155" stroke-width="2"/><text x="116" y="88" font-family="Inter, Arial, sans-serif" font-size="16" font-weight="900" fill="#f8fafc" text-anchor="start">QAT</text><text x="116" y="106" font-family="Inter, Arial, sans-serif" font-size="10" font-weight="700" fill="#94a3b8" text-anchor="start">Tap pick</text><rect x="208" y="64" width="94" height="54" rx="14" fill="#111827" stroke="#334155" stroke-width="2"/><text x="220" y="88" font-family="Inter, Arial, sans-serif" font-size="16" font-weight="900" fill="#f8fafc" text-anchor="start">SUI</text><text x="220" y="106" font-family="Inter, Arial, sans-serif" font-size="10" font-weight="700" fill="#94a3b8" text-anchor="start">Tap pick</text></g></g>
</svg>
